<?xml version="1.0" encoding="utf-8" ?>
<svg xmlns="http://www.w3.org/2000/svg" xmlns:xlink="http://www.w3.org/1999/xlink" width="1004" height="1004">
	<path fill="#19A6AD" transform="matrix(0.677793 0.302675 -0.302675 0.677793 309.94 0)" d="M676.588 174.345L700.923 128.285C702.091 126.033 703.205 123.74 704.149 121.383C704.689 120.034 704.828 118.622 705.726 117.447L706.25 118.911C713.675 120.216 720.139 121.211 724.816 127.921C727.586 131.894 728.719 136.673 727.842 141.434C726.867 146.731 723.562 151.88 721.081 156.584L708.574 180.616C706.9 183.887 704.697 187.287 703.362 190.672C698.515 187.322 693.506 184.678 688.5 181.618C684.514 179.182 680.865 176.255 676.588 174.345Z"/>
	<path fill="#19A6AD" transform="matrix(0.677793 0.302675 -0.302675 0.677793 309.94 0)" d="M802.649 287.5C811.168 295.53 818.198 305.636 824.795 315.302C860.968 368.301 880.436 435.039 882.427 498.876C885.201 587.799 850.271 679.07 789.25 743.77L788.703 744.347C744.845 790.492 693.123 825.823 633.152 847.6C621.933 851.674 610.549 855.505 599 858.541L587.906 861.319C587.069 861.525 584.932 861.776 584.324 862.18C581.974 863.74 550.286 921.838 546.173 929.135L540.426 939.401C539.293 941.429 538.041 944.032 536.171 945.447C535.822 945.71 535.621 945.812 535.25 946.035L534.804 946.306C533.043 947.3 530.174 947.422 528.268 946.793C523.367 945.176 520.651 939.212 518.25 935.063L513.367 926.504L514.809 926.132C516.169 925.71 518.896 924.783 519.762 923.626C521.744 920.976 523.288 917.677 524.905 914.773L534.061 898.231L565.595 841.156C569.776 841.106 573.976 840.14 578.073 839.374C586.263 837.842 594.884 836.081 602.563 832.77L627.74 824.523C642.538 819.242 657.183 812.557 671.049 805.171C754.97 760.471 820.831 683.587 848.45 592.124C872.733 511.709 867.84 420.651 833.655 343.767C828.292 331.706 822.205 319.849 815.456 308.5C811.383 301.65 806.653 295.005 802.911 288L802.649 287.5Z"/>
	<path fill="#72DDD9" transform="matrix(0.677793 0.302675 -0.302675 0.677793 309.94 0)" d="M703.502 190.863C716.72 199.032 729.313 209.092 741.045 219.25C764.409 239.479 785.01 262.126 802.649 287.5L802.911 288C806.653 295.005 811.383 301.65 815.456 308.5C822.205 319.849 828.292 331.706 833.655 343.767C867.84 420.651 872.733 511.709 848.45 592.124C820.831 683.587 754.97 760.471 671.049 805.171C657.183 812.557 642.538 819.242 627.74 824.523L602.563 832.77C594.884 836.081 586.263 837.842 578.073 839.374C573.976 840.14 569.776 841.106 565.595 841.156L684.382 623.229L731.925 534.127L746.19 507.371C748.754 502.579 751.161 497.44 754.086 492.881C756.853 488.568 761.818 485.984 764.792 481.52C770.978 472.236 772.099 461.361 769.892 450.563C765.311 439.284 758.658 432.519 748.003 426.844L747.908 407.961C745.129 381.364 732.722 355.646 711.832 338.415L711.144 337.856C709.471 336.468 708.12 335.439 706.089 334.62C704.96 334.312 689.446 316.356 687.039 313.619C687.172 307.476 685.523 301.037 683.547 295.25C679.42 283.165 673.366 272.751 666.326 262.166L703.502 190.863Z"/>
	<path fill="#2BC1BF" transform="matrix(0.677793 0.302675 -0.302675 0.677793 309.94 0)" d="M769.892 450.563C779.003 453.632 787.971 458.334 792.314 467.396C796.17 475.442 796.212 483.965 793.103 492.271C791.925 495.416 789.715 498.954 787.38 501.383C784.579 504.298 780.916 506.664 778.569 509.973C776.611 512.735 775.2 516.07 773.635 519.078L766.672 532.153L718.184 621.175L652.366 741.426L620.867 797.92C614.495 809.339 607.361 820.603 602.563 832.77C594.884 836.081 586.263 837.842 578.073 839.374C573.976 840.14 569.776 841.106 565.595 841.156L684.382 623.229L731.925 534.127L746.19 507.371C748.754 502.579 751.161 497.44 754.086 492.881C756.853 488.568 761.818 485.984 764.792 481.52C770.978 472.236 772.099 461.361 769.892 450.563Z"/>
	<path fill="#72DDD9" transform="matrix(0.677793 0.302675 -0.302675 0.677793 309.94 0)" d="M458.685 844.061L451.833 842.293L416.928 830.744C397.142 823.831 377.555 816.306 358.75 807C294.923 775.415 241.206 725.677 206.157 663.523C160.001 581.674 147.333 478.806 172.77 388.245C197.973 298.517 260.039 219.801 341.416 174.301C413.535 133.977 497.216 122.627 578.124 136.726C597.658 140.13 617.056 145.381 636.119 150.78C633.912 156.724 630.315 162.574 627.415 168.236L609.422 203.766L597 198.421C595.15 197.683 592.886 197.142 591.162 196.19C588.541 190.475 583.287 186.179 577.716 183.44C574.834 179.805 572.245 175.795 569.108 172.392C556.645 158.874 538.941 148.699 520.476 146.585C500.23 144.267 480.381 150.072 464.594 162.909C458.586 167.795 453.219 173.522 448.807 179.889C447.179 182.238 445.857 184.792 444.486 187.295C444.06 188.073 443.365 189.652 442.661 190.229C441.218 191.411 437.07 192.411 435.195 193.152C431.248 194.713 427.459 196.523 423.67 198.426C398.759 210.935 379.183 231.147 367.11 256.224C361.804 267.246 357.972 279.133 356.466 291.287C356.197 293.463 356.183 298.194 355.154 300.009C354.885 300.483 351.63 302.036 350.99 302.419C347.798 304.325 344.753 306.497 341.832 308.795C319.975 325.991 305.086 353.98 302.474 381.692C301.574 391.242 301.644 401.334 303.481 410.756C304.395 415.441 305.971 419.938 307.357 424.495C290.691 424.251 276.218 423.154 263.373 435.865C256.718 442.449 252.925 452.214 253.023 461.512C253.118 470.444 256.85 479.21 263.273 485.433C265.181 487.281 267.31 488.982 269.49 490.498C270.886 491.469 272.855 492.514 273.859 493.9C275.872 496.68 277.369 500.44 278.978 503.5L289.816 524.02L328.724 597.652L458.685 844.061Z"/>
	<path fill="#401037" transform="matrix(0.677793 0.302675 -0.302675 0.677793 309.94 0)" d="M636.119 150.78C638.497 148.428 640.167 143.596 641.701 140.556L652.147 120.022C656.34 111.485 660.124 100.386 667.248 93.8661C671.614 89.8702 677.613 88.0269 683.478 88.2913C690.216 88.5949 695.779 92.0653 700.166 96.989C705.485 102.959 706.174 109.809 705.726 117.447C704.828 118.622 704.689 120.034 704.149 121.383C703.205 123.74 702.091 126.033 700.923 128.285L676.588 174.345C680.865 176.255 684.514 179.182 688.5 181.618C693.506 184.678 698.515 187.322 703.362 190.672L703.502 190.863L666.326 262.166C673.366 272.751 679.42 283.165 683.547 295.25C685.523 301.037 687.172 307.476 687.039 313.619C689.446 316.356 704.96 334.312 706.089 334.62C708.12 335.439 709.471 336.468 711.144 337.856L711.832 338.415C732.722 355.646 745.129 381.364 747.908 407.961L748.003 426.844C758.658 432.519 765.311 439.284 769.892 450.563C772.099 461.361 770.978 472.236 764.792 481.52C761.818 485.984 756.853 488.568 754.086 492.881C751.161 497.44 748.754 502.579 746.19 507.371L731.925 534.127L684.382 623.229L565.595 841.156L534.061 898.231L524.905 914.773C523.288 917.677 521.744 920.976 519.762 923.626C518.896 924.783 516.169 925.71 514.809 926.132L513.367 926.504C512.223 926.526 511.088 926.504 509.957 926.302C508.575 926.054 505.947 925.729 504.944 924.823C503.77 923.763 502.745 921.692 501.92 920.326L495.308 908.54L471.122 866.236C467.021 858.958 463.449 850.883 458.685 844.061L328.724 597.652L289.816 524.02L278.978 503.5C277.369 500.44 275.872 496.68 273.859 493.9C272.855 492.514 270.886 491.469 269.49 490.498C267.31 488.982 265.181 487.281 263.273 485.433C256.85 479.21 253.118 470.444 253.023 461.512C252.925 452.214 256.718 442.449 263.373 435.865C276.218 423.154 290.691 424.251 307.357 424.495C305.971 419.938 304.395 415.441 303.481 410.756C301.644 401.334 301.574 391.242 302.474 381.692C305.086 353.98 319.975 325.991 341.832 308.795C344.753 306.497 347.798 304.325 350.99 302.419C351.63 302.036 354.885 300.483 355.154 300.009C356.183 298.194 356.197 293.463 356.466 291.287C357.972 279.133 361.804 267.246 367.11 256.224C379.183 231.147 398.759 210.935 423.67 198.426C427.459 196.523 431.248 194.713 435.195 193.152C437.07 192.411 441.218 191.411 442.661 190.229C443.365 189.652 444.06 188.073 444.486 187.295C445.857 184.792 447.179 182.238 448.807 179.889C453.219 173.522 458.586 167.795 464.594 162.909C480.381 150.072 500.23 144.267 520.476 146.585C538.941 148.699 556.645 158.874 569.108 172.392C572.245 175.795 574.834 179.805 577.716 183.44C583.287 186.179 588.541 190.475 591.162 196.19C592.886 197.142 595.15 197.683 597 198.421L609.422 203.766L627.415 168.236C630.315 162.574 633.912 156.724 636.119 150.78Z"/>
	<path fill="#2BC1BF" transform="matrix(0.677793 0.302675 -0.302675 0.677793 309.94 0)" d="M577.716 183.44C583.287 186.179 588.541 190.475 591.162 196.19L582.915 193.922L577.716 183.44Z"/>
	<path fill="#FEFEFE" transform="matrix(0.677793 0.302675 -0.302675 0.677793 309.94 0)" d="M280.01 480.372L277.67 479.087C272.453 475.784 268.718 469.92 267.423 463.918C266.374 459.056 267.721 453.714 270.56 449.662C275.142 443.124 280.692 440.279 288.392 438.76L288.163 439.483C287.57 441.15 286.046 442.31 285.07 443.75C281.866 448.479 281.285 454.688 283.455 459.968C284.908 463.5 287.124 465.889 290.621 467.447L290.828 467.478C285.179 471.143 282.578 474.18 280.01 480.372Z"/>
	<path fill="#2BC1BF" transform="matrix(0.677793 0.302675 -0.302675 0.677793 309.94 0)" d="M706.089 334.62C708.12 335.439 709.471 336.468 711.144 337.856L711.832 338.415C732.722 355.646 745.129 381.364 747.908 407.961L748.003 426.844C738.201 423.332 728.106 424.168 717.907 425.041L721.197 413.368C728.376 386.08 719.82 358.232 706.089 334.62Z"/>
	<path fill="#E63558" transform="matrix(0.677793 0.302675 -0.302675 0.677793 309.94 0)" d="M666.117 315.617C671.308 318.445 675.794 322.557 680.01 326.665C692.252 338.591 701.126 352.138 705.974 368.611C710.409 383.686 710.325 401.395 705.968 416.484C705.337 418.669 704.823 421.487 703.716 423.465L703.48 423.825L666.823 423.991L675.581 406.6C685.2 382.095 682.695 356.594 673.575 332.294C671.529 326.841 668.762 321.829 666.487 316.495L666.117 315.617Z"/>
	<path fill="#DE7D25" transform="matrix(0.677793 0.302675 -0.302675 0.677793 309.94 0)" d="M552.603 176.102C564.611 186.308 572.039 201.487 573.313 217.25C574.728 234.76 569.263 252.207 557.608 265.448C547.245 277.221 531.958 285.725 516.129 286.633C499.416 287.591 484.252 283.39 471.75 271.896C464.404 265.142 459.222 257.351 455.124 248.282C457.587 249.114 459.755 249.19 462.314 249.227L462.916 249.147L463.366 249.823C470.752 260.725 484.899 267.174 497.489 269.4C513.222 272.181 527.023 268.371 540 259.471C547.002 254.67 552.357 247.445 556.057 239.903C563.49 224.751 563.843 206.138 558.481 190.25C556.844 185.4 554.249 180.972 552.603 176.102Z"/>
	<path fill="#2BC1BF" transform="matrix(0.677793 0.302675 -0.302675 0.677793 309.94 0)" d="M676.588 174.345C680.865 176.255 684.514 179.182 688.5 181.618C693.506 184.678 698.515 187.322 703.362 190.672L703.502 190.863L666.326 262.166C673.366 272.751 679.42 283.165 683.547 295.25C685.523 301.037 687.172 307.476 687.039 313.619C684.957 312.117 670.256 301.627 669.727 300.57C669.233 299.581 669.238 297.05 669.108 295.893C668.64 291.714 668.163 287.567 667.339 283.439C663.792 265.663 655.711 249.831 645.554 235.006L676.588 174.345Z"/>
	<path fill="#E63558" transform="matrix(0.677793 0.302675 -0.302675 0.677793 309.94 0)" d="M625.653 214.646L618.962 210.32L653.226 141.828L664.571 119.024C666.66 114.83 668.575 110.238 671.192 106.348C672.546 104.335 674.182 102.687 676.5 101.885C680.064 100.652 683.742 100.71 687.123 102.444C689.901 103.869 692.533 106.61 693.321 109.703C694.01 112.407 693.639 115.606 692.64 118.159C690.684 123.16 687.562 127.855 685.072 132.633L669.518 162.893L647.579 205.781C644.176 212.382 641.221 219.469 637.209 225.712L630.483 218.693L625.653 214.646Z"/>
	<path fill="#FFCCCE" transform="matrix(0.677793 0.302675 -0.302675 0.677793 309.94 0)" d="M625.653 214.646C628.672 206.211 633.22 198.362 637.269 190.391L655.783 153.63L668.301 128.231C670.819 123.089 673.076 116.918 676.75 112.503C678.644 112.537 679.45 112.921 681.005 113.978C681.718 115.251 681.793 115.33 681.384 116.801C680.207 121.035 677.403 124.779 675.415 128.655L660.123 158.734L640.287 198.961C637.091 205.464 634.188 212.503 630.483 218.693L625.653 214.646Z"/>
	<path fill="#FEFEFE" transform="matrix(0.677793 0.302675 -0.302675 0.677793 309.94 0)" d="M336.476 423.997L321.489 424.023C319.215 415.964 317.107 407.889 316.364 399.525C313.51 367.42 327.924 338.384 352.57 318.374C354.895 316.487 357.358 314.79 359.925 313.25L367.256 308.941C367.59 308.732 369.188 307.873 369.341 307.623C369.507 307.349 369.375 305.505 369.387 304.989C369.456 301.86 369.567 298.785 370.002 295.68C371.368 285.933 373.841 276.285 377.67 267.208C389.342 239.541 410.337 218.701 438.162 207.434L436.819 216.939L436.449 217.245C430.258 222.244 422.992 225.952 416.696 231.008C396.029 247.601 384.093 272.226 381.136 298.255L380.095 312.31C380.023 313.686 380.207 316.808 379.488 317.991C379.127 318.585 378.026 319.327 377.441 319.799C372.651 323.661 366.108 325.818 360.93 329.376C343.181 341.569 332.959 361.212 330.339 382.255C328.507 396.971 331.218 410.352 336.476 423.997Z"/>
	<path fill="#FEFEFE" transform="matrix(0.677793 0.302675 -0.302675 0.677793 309.94 0)" d="M501.731 891.065L485.708 862.996L462.504 820L400.252 703.012L417.14 703.002L512.094 881.242C512.291 883.987 512.492 885.944 510.553 888.095C508.604 890.257 506.587 891.046 503.756 891.073L501.731 891.065Z"/>
	<path fill="#20536C" transform="matrix(0.677793 0.302675 -0.302675 0.677793 309.94 0)" d="M604.715 702.506L624.593 702.517L511.518 909.191L501.731 891.065L503.756 891.073C506.587 891.046 508.604 890.257 510.553 888.095C512.492 885.944 512.291 883.987 512.094 881.242C513.724 876.704 516.234 872.476 518.463 868.21L528.321 849.177L555.987 796L589.939 730.657C594.786 721.422 599.113 711.239 604.715 702.506Z"/>
	<path fill="#FEFEFE" transform="matrix(0.677793 0.302675 -0.302675 0.677793 309.94 0)" d="M411.98 687.957L393.116 688.361L292.18 495.311L313.615 495.486C315.755 501.127 319.175 506.631 321.969 512.008L337.823 542.588L393.847 650.521L406.441 676.283C408.26 679.983 410.754 684.039 411.98 687.957Z"/>
	<path fill="#EEA63C" transform="matrix(0.677793 0.302675 -0.302675 0.677793 309.94 0)" d="M313.615 495.486L394.413 495.485L394.042 606.92L394.198 633.983C394.283 638.614 394.722 643.382 394.587 648C394.552 649.223 394.498 649.495 393.847 650.521L337.823 542.588L321.969 512.008C319.175 506.631 315.755 501.127 313.615 495.486Z"/>
	<path fill="#EEA63C" transform="matrix(0.677793 0.302675 -0.302675 0.677793 309.94 0)" d="M724.374 438.506C729.786 438.475 735.026 438.367 740.362 439.417C745.279 440.385 750.48 443.476 753.199 447.804C755.102 450.834 756.095 453.736 756.634 457.25L756.761 458.044C757.552 463.465 755.682 469.099 752.286 473.333C749.52 476.782 743.771 480.516 739.195 480.929C729.973 481.763 720.077 481.023 710.761 481.024L650.638 481.005L460.382 480.998L332.862 481.008L304.686 481.103C296.694 481.193 287.858 482.018 280.01 480.372C282.578 474.18 285.179 471.143 290.828 467.478C293.112 466.8 296.081 467.006 298.469 467.004L311.889 467L361.08 466.993L637.148 466.997L698.61 467.019L718.122 467.001C721.937 466.991 726.131 467.309 729.835 466.27C732.466 465.532 734.881 463.636 736.085 461.161C737.519 458.215 737.564 453.192 736.315 450.151L736.03 449.5C733.459 443.509 729.399 441.98 724.374 438.506Z"/>
	<path fill="#EB5E73" transform="matrix(0.677793 0.302675 -0.302675 0.677793 309.94 0)" d="M658.387 310.4C660.923 312.057 663.819 313.664 666.117 315.617L666.487 316.495C668.762 321.829 671.529 326.841 673.575 332.294C682.695 356.594 685.2 382.095 675.581 406.6L666.823 423.991L503.415 423.913L503.309 423.301C502.526 422.85 502.779 422.941 502.07 422.693C496.385 420.699 489.571 418.256 486.303 412.87L497.956 416.566C510.688 419.552 526.977 417.433 538.16 410.423C553.782 400.631 559.133 387.837 563.102 370.549C572.364 379.122 586.023 382.79 598.425 382.552C612.77 382.277 628.035 375.259 637.834 364.862C644.776 357.497 650.055 347.106 651.348 337C652.057 331.459 651.579 325.522 651.416 319.943C651.334 317.971 651.32 316.39 652.476 314.678C653.847 312.648 656.005 310.946 658.387 310.4Z"/>
	<path fill="#EEA63C" transform="matrix(0.677793 0.302675 -0.302675 0.677793 309.94 0)" d="M455.146 196.49C457.418 189.576 462.593 183.255 467.672 178.172C479.915 165.917 495.951 159.664 513.25 160.023C527.247 160.314 542.905 165.716 552.603 176.102C554.249 180.972 556.844 185.4 558.481 190.25C563.843 206.138 563.49 224.751 556.057 239.903C552.357 247.445 547.002 254.67 540 259.471C527.023 268.371 513.222 272.181 497.489 269.4C484.899 267.174 470.752 260.725 463.366 249.823L462.916 249.147L462.314 249.227C459.755 249.19 457.587 249.114 455.124 248.282C452.371 243.075 450.775 235.395 450.342 229.519C448.797 218.352 450.29 206.75 455.146 196.49Z"/>
	<path fill="#FEFEFE" transform="matrix(0.677793 0.302675 -0.302675 0.677793 309.94 0)" d="M467.255 220.25C468.357 220.03 469.234 219.983 470.353 220.172C472.24 220.489 473.618 221.205 474.707 222.813C475.623 224.166 476.157 225.737 475.79 227.371C475.224 229.887 473.284 231.374 471.271 232.75C470.168 233.057 468.889 233.123 467.75 232.983C466.22 232.795 464.565 231.787 463.75 230.466C462.765 228.869 462.679 226.75 463.078 224.943C463.572 222.703 465.402 221.338 467.255 220.25Z"/>
	<path fill="#FEFEFE" transform="matrix(0.677793 0.302675 -0.302675 0.677793 309.94 0)" d="M455.146 196.49L455.556 196.088C459.464 192.187 462.694 187.466 466.406 183.336C475.934 172.734 488.741 167.372 502.563 165.315C509.265 164.318 517.55 164.621 524.077 166.394L524.5 166.83C519.87 167.849 515.18 167.197 510.529 167.885C492.429 170.564 475.841 179.233 465.763 194.942C458.451 206.338 455.369 221.594 458.356 234.836C459.044 237.885 460.063 240.866 461.261 243.75C461.668 244.731 463.303 247.606 463.307 248.493C463.308 248.747 463.046 248.929 462.916 249.147L462.314 249.227C459.755 249.19 457.587 249.114 455.124 248.282C452.371 243.075 450.775 235.395 450.342 229.519C448.797 218.352 450.29 206.75 455.146 196.49Z"/>
	<path fill="#EEA63C" transform="matrix(0.677793 0.302675 -0.302675 0.677793 309.94 0)" d="M450.342 229.519L450.65 230.081C452.048 232.665 452.868 235.437 454.251 238.001C456.451 242.079 459.476 245.589 462.314 249.227C459.755 249.19 457.587 249.114 455.124 248.282C452.371 243.075 450.775 235.395 450.342 229.519Z"/>
	<path fill="#FEFEFE" transform="matrix(0.677793 0.302675 -0.302675 0.677793 309.94 0)" d="M487.429 183.088C489.406 182.941 491.25 182.986 493.129 183.706C496.063 184.831 499.158 187.787 500.191 190.793C501.447 194.446 499.806 199.345 498.107 202.594C494.356 209.769 488.158 215.756 480.378 218.164C477.889 218.074 473.618 218.123 471.447 216.773C468.902 215.19 467.024 211.487 466.357 208.671C465.346 204.396 467.155 199.934 469.311 196.294C473.412 189.37 479.669 185.017 487.429 183.088Z"/>
	<path fill="#DE7D25" transform="matrix(0.677793 0.302675 -0.302675 0.677793 309.94 0)" d="M629.258 495.476L654.418 495.618L735.102 495.745L632.521 687.84L614.997 687.906C612.77 687.911 609.59 688.286 607.492 687.59L606.987 687.585C611.61 680.805 614.584 672.191 617.949 664.698L629.578 638.937L630.305 636.401C629.625 632.401 630.01 627.892 630.004 623.828L629.978 600.317L629.705 533.438C629.642 520.842 630.104 508.03 629.258 495.476Z"/>
	<path fill="#EEA63C" transform="matrix(0.677793 0.302675 -0.302675 0.677793 309.94 0)" d="M629.578 638.937C630.693 645.585 630.041 653.145 630.091 659.897L630.469 687.355L615.63 687.395C612.98 687.403 610.104 687.186 607.492 687.59L606.987 687.585C611.61 680.805 614.584 672.191 617.949 664.698L629.578 638.937Z"/>
	<path fill="#EEA63C" transform="matrix(0.677793 0.302675 -0.302675 0.677793 309.94 0)" d="M629.258 495.476L654.418 495.618L655.1 495.813C658.445 496.701 663.74 496.048 667.277 496.056L696.72 496.078L630.305 636.401C629.625 632.401 630.01 627.892 630.004 623.828L629.978 600.317L629.705 533.438C629.642 520.842 630.104 508.03 629.258 495.476Z"/>
	<path fill="#F8DC8B" transform="matrix(0.677793 0.302675 -0.302675 0.677793 309.94 0)" d="M288.392 438.76C290.598 438.094 293.973 438.488 296.328 438.487L313.519 438.483L383.862 438.475L724.374 438.506C729.399 441.98 733.459 443.509 736.03 449.5L736.315 450.151C737.564 453.192 737.519 458.215 736.085 461.161C734.881 463.636 732.466 465.532 729.835 466.27C726.131 467.309 721.937 466.991 718.122 467.001L698.61 467.019L637.148 466.997L361.08 466.993L311.889 467L298.469 467.004C296.081 467.006 293.112 466.8 290.828 467.478L290.621 467.447C287.124 465.889 284.908 463.5 283.455 459.968C281.285 454.688 281.866 448.479 285.07 443.75C286.046 442.31 287.57 441.15 288.163 439.483L288.392 438.76Z"/>
	<path fill="#F8DC8B" transform="matrix(0.677793 0.302675 -0.302675 0.677793 309.94 0)" d="M394.413 495.485L469.536 495.487L469.973 687.562L411.98 687.957C410.754 684.039 408.26 679.983 406.441 676.283L393.847 650.521C394.498 649.495 394.552 649.223 394.587 648C394.722 643.382 394.283 638.614 394.198 633.983L394.042 606.92L394.413 495.485Z"/>
	<path fill="#F8DC8B" transform="matrix(0.677793 0.302675 -0.302675 0.677793 309.94 0)" d="M566.009 495.601L629.258 495.476C630.104 508.03 629.642 520.842 629.705 533.438L629.978 600.317L630.004 623.828C630.01 627.892 629.625 632.401 630.305 636.401L629.578 638.937L617.949 664.698C614.584 672.191 611.61 680.805 606.987 687.585L552.027 687.559L552.038 495.891L566.009 495.601Z"/>
	<path fill="#EEA63C" transform="matrix(0.677793 0.302675 -0.302675 0.677793 309.94 0)" d="M469.536 495.487L566.009 495.601L552.038 495.891L552.027 687.559L469.973 687.562L469.536 495.487Z"/>
	<path fill="#45748A" transform="matrix(0.677793 0.302675 -0.302675 0.677793 309.94 0)" d="M417.14 703.002L604.715 702.506C599.113 711.239 594.786 721.422 589.939 730.657L555.987 796L528.321 849.177L518.463 868.21C516.234 872.476 513.724 876.704 512.094 881.242L417.14 703.002Z"/>
	<path fill="#F58C8D" transform="matrix(0.677793 0.302675 -0.302675 0.677793 309.94 0)" d="M587.331 217.97L585.828 208.569C612.808 218.263 634.44 237.611 646.786 263.609C650.042 270.466 652.269 277.98 653.759 285.41C654.655 289.876 655.05 294.466 655.454 299C655.837 303.285 655.888 306.736 658.387 310.4C656.005 310.946 653.847 312.648 652.476 314.678C651.32 316.39 651.334 317.971 651.416 319.943C651.579 325.522 652.057 331.459 651.348 337C650.055 347.106 644.776 357.497 637.834 364.862C628.035 375.259 612.77 382.277 598.425 382.552C586.023 382.79 572.364 379.122 563.102 370.549C559.133 387.837 553.782 400.631 538.16 410.423C526.977 417.433 510.688 419.552 497.956 416.566L486.303 412.87C489.571 418.256 496.385 420.699 502.07 422.693C502.779 422.941 502.526 422.85 503.309 423.301L503.415 423.913L336.476 423.997C331.218 410.352 328.507 396.971 330.339 382.255C332.959 361.212 343.181 341.569 360.93 329.376C366.108 325.818 372.651 323.661 377.441 319.799C378.026 319.327 379.127 318.585 379.488 317.991C380.207 316.808 380.023 313.686 380.095 312.31L381.136 298.255C384.093 272.226 396.029 247.601 416.696 231.008C422.992 225.952 430.258 222.244 436.449 217.245L436.819 216.939C436.672 240.739 441.837 261.339 459.017 278.843C471.761 291.827 492.133 300.665 510.405 300.693C532.018 300.726 549.723 292.718 564.85 277.512C579.776 262.509 587.465 242.735 587.397 221.66L587.331 217.97Z"/>
	<path fill="#401037" transform="matrix(0.677793 0.302675 -0.302675 0.677793 309.94 0)" d="M449.203 311.542C451.181 311.212 453.578 311.184 455.508 311.734C458.748 312.657 461.528 315.397 462.959 318.387C464.328 321.249 464.158 324.997 463.062 327.922C461.576 331.885 458.108 333.942 454.419 335.476C452.41 335.538 449.777 335.853 447.865 335.217C444.685 334.157 441.946 331.532 440.641 328.481C439.143 324.979 439.396 321.63 440.929 318.193C442.585 314.484 445.657 312.979 449.203 311.542Z"/>
	<path fill="#EEA63C" transform="matrix(0.677793 0.302675 -0.302675 0.677793 309.94 0)" d="M449.492 315.25C450.518 314.993 451.301 314.998 452.331 315.178C454.715 315.594 457.554 316.946 458.803 319.15C459.916 321.116 460.079 323.591 459.482 325.75C458.608 328.91 456.421 329.989 453.75 331.516C452.324 332.001 450.006 331.655 448.606 331.16C446.659 330.47 444.49 328.044 443.786 326.127C443.044 324.107 443.405 321.395 444.28 319.469C445.294 317.242 447.306 316.084 449.492 315.25Z"/>
	<path fill="#401037" transform="matrix(0.677793 0.302675 -0.302675 0.677793 309.94 0)" d="M381.394 328.085C382.439 328.014 383.435 327.956 384.479 328.079C387.788 328.469 391.219 330.057 393.295 332.731C395.26 335.262 396.176 338.679 395.706 341.852L395.598 342.5C395.418 343.612 395.213 344.627 394.753 345.665C392.857 349.943 389.546 351.839 385.372 353.484C382.102 353.564 379.533 353.79 376.644 351.975C373.717 350.135 371.423 347.427 370.649 344.019C369.837 340.444 370.416 336.318 372.435 333.238C374.549 330.012 377.817 328.953 381.394 328.085Z"/>
	<path fill="#EEA63C" transform="matrix(0.677793 0.302675 -0.302675 0.677793 309.94 0)" d="M380.389 331.75C382.442 331.447 384.063 331.709 386 332.425C388.334 333.287 390.307 335.215 391.219 337.557C391.999 339.558 391.698 342.536 390.833 344.495C389.726 347.001 387.155 348.561 384.75 349.601C382.917 349.728 380.682 349.447 378.968 348.765C376.902 347.943 375.521 346.501 374.575 344.5C373.369 341.95 373.506 339.34 374.535 336.75C375.711 333.793 377.588 332.874 380.389 331.75Z"/>
	<path fill="#401037" transform="matrix(0.677793 0.302675 -0.302675 0.677793 309.94 0)" d="M404.533 374.656C407.698 374.6 410.005 374.97 412.797 376.538C416.101 378.394 418.185 381.703 419.025 385.344C419.748 388.482 418.759 392.045 417.048 394.707C415.366 397.324 411.969 400.076 408.887 400.672C406.479 400.951 404.427 401.219 402.141 400.264C398.588 398.78 395.816 395.738 394.501 392.143C393.243 388.704 393.347 385.045 395 381.75C396.952 377.86 400.548 375.885 404.533 374.656Z"/>
	<path fill="#EEA63C" transform="matrix(0.677793 0.302675 -0.302675 0.677793 309.94 0)" d="M398.393 384.009C398.608 383.321 398.607 383.199 399.049 382.5C399.83 381.265 401.765 379.443 403.25 379.13C406.873 378.365 409.671 379.566 412.595 381.551C414.284 384.144 415.323 385.949 414.663 389.141C414.084 391.943 412.576 394.408 410.108 395.955C408.574 396.916 406.495 397.114 404.781 396.655C402.205 395.965 400.059 394.575 398.801 392.139C397.686 389.983 397.658 386.277 398.393 384.009Z"/>
	<path fill="#FEFEFE" transform="matrix(0.677793 0.302675 -0.302675 0.677793 309.94 0)" d="M398.393 384.009C398.608 383.321 398.607 383.199 399.049 382.5C399.83 381.265 401.765 379.443 403.25 379.13C406.873 378.365 409.671 379.566 412.595 381.551L409.192 382.75L408.941 385.1C408.784 386.691 408.452 388.845 407.193 389.98C406.097 390.968 404.333 391.149 402.95 390.817C401.593 390.491 400.593 389.863 399.898 388.634C399.135 387.286 398.754 385.515 398.393 384.009Z"/>
	<path fill="#E63558" transform="matrix(0.677793 0.302675 -0.302675 0.677793 309.94 0)" d="M587.331 217.97L585.828 208.569C612.808 218.263 634.44 237.611 646.786 263.609C650.042 270.466 652.269 277.98 653.759 285.41C654.655 289.876 655.05 294.466 655.454 299C655.837 303.285 655.888 306.736 658.387 310.4C656.005 310.946 653.847 312.648 652.476 314.678C651.32 316.39 651.334 317.971 651.416 319.943C651.579 325.522 652.057 331.459 651.348 337C650.055 347.106 644.776 357.497 637.834 364.862C628.035 375.259 612.77 382.277 598.425 382.552C586.023 382.79 572.364 379.122 563.102 370.549C559.133 387.837 553.782 400.631 538.16 410.423C526.977 417.433 510.688 419.552 497.956 416.566L486.303 412.87C481.8 410.119 477.519 407.03 473.75 403.322C464.698 394.417 459.65 382.755 459.577 370.044C459.508 369.345 459.466 369.289 459.586 368.5C459.891 366.494 461.554 365.113 462.996 363.877C466.195 363.702 469.461 370.092 471.44 372.5C477.064 379.342 486.315 384.569 494.993 386.098C508.985 388.562 521.884 387.114 533.698 378.621C541.939 372.695 548.37 363.033 550.939 353.25C551.793 349.998 551.864 346.547 552.504 343.25C552.776 341.844 552.992 340.874 554.451 340.25C555.38 339.853 556.202 339.885 556.946 340.564C558.527 342.007 559.831 343.902 561.354 345.44C565.416 349.544 570.1 352.431 575.698 353.995C586.391 356.985 596.791 356.058 606.5 350.588C619.436 343.301 628.288 330.366 632.151 316.174C638.163 294.088 632.314 271.216 621.178 251.827C614.649 240.46 604.725 229.804 594.177 222.128C592.106 220.621 589.826 218.648 587.331 217.97Z"/>
	<path fill="#401037" transform="matrix(0.677793 0.302675 -0.302675 0.677793 309.94 0)" d="M459.577 370.044C461.106 372.65 461.465 375.691 462.515 378.5C464.904 384.894 469.444 390.71 474.513 395.191C485.417 404.833 499.065 408.452 513.427 407.477C532.231 406.201 550.384 392.216 556.948 374.711C558.599 370.306 558.109 364.441 561.25 360.809C564.422 359.821 570.519 363.702 573.518 365.026C585.653 370.384 603.114 371.081 615.467 366.235C630.917 360.173 642.592 347.356 648.29 331.88C649.583 328.369 649.435 323.918 651.018 320.695L651.416 319.943C651.579 325.522 652.057 331.459 651.348 337C650.055 347.106 644.776 357.497 637.834 364.862C628.035 375.259 612.77 382.277 598.425 382.552C586.023 382.79 572.364 379.122 563.102 370.549C559.133 387.837 553.782 400.631 538.16 410.423C526.977 417.433 510.688 419.552 497.956 416.566L486.303 412.87C481.8 410.119 477.519 407.03 473.75 403.322C464.698 394.417 459.65 382.755 459.577 370.044Z"/>
</svg>
